<?xml version="1.0" standalone="no"?>
<!DOCTYPE svg PUBLIC "-//W3C//DTD SVG 20010904//EN"
 "http://www.w3.org/TR/2001/REC-SVG-20010904/DTD/svg10.dtd">
<svg version="1.0" xmlns="http://www.w3.org/2000/svg"
 width="501.000000pt" height="501.000000pt" viewBox="0 0 501.000000 501.000000"
 preserveAspectRatio="xMidYMid meet">
<metadata>
Created by potrace 1.11, written by Peter Selinger 2001-2013
</metadata>
<g transform="translate(0.000000,501.000000) scale(0.100000,-0.100000)"
fill="#000000" stroke="none">
<path d="M2103 4631 c-76 -48 -105 -197 -59 -298 13 -28 33 -57 44 -64 18 -13
26 -33 37 -99 29 -171 36 -209 44 -237 9 -31 9 -31 -33 -37 -57 -9 -96 -15
-126 -21 -14 -3 -36 -7 -50 -10 -63 -11 -255 -70 -350 -107 -628 -244 -1040
-735 -1054 -1256 -12 -442 218 -842 650 -1131 220 -148 515 -270 764 -317 14
-3 44 -9 67 -14 22 -5 65 -13 95 -16 29 -3 56 -8 59 -10 14 -8 244 -18 365
-16 130 2 131 2 156 -26 18 -18 28 -44 33 -77 4 -27 8 -61 10 -75 2 -14 6 -45
9 -70 3 -25 19 -119 36 -210 16 -91 30 -166 30 -168 0 -11 212 33 307 64 89
28 331 145 388 187 174 127 192 142 312 264 301 305 534 774 599 1208 3 17 12
73 22 125 19 112 22 374 4 435 -6 22 -14 57 -17 78 -10 58 -82 231 -132 316
-126 212 -284 368 -563 551 -41 27 -200 106 -270 134 -36 15 -74 31 -85 36
-61 26 -298 93 -380 106 -20 3 -47 8 -59 10 -29 6 -172 25 -221 30 -50 4 -408
6 -425 2 -8 -2 -19 14 -26 37 -79 252 -84 283 -46 317 47 44 64 97 62 188 -3
139 -106 228 -197 171z"/>
<path d="M520 2872 c-20 -4 -92 -95 -119 -150 -67 -132 -63 -302 11 -447 35
-68 71 -105 103 -105 20 0 25 4 21 18 -10 32 -27 197 -31 301 -2 51 3 93 17
140 25 83 46 201 40 223 -5 19 -20 26 -42 20z"/>
<path d="M4491 2871 c-21 -13 -15 -78 17 -210 29 -116 32 -177 16 -311 -3 -30
-8 -73 -10 -95 -2 -22 -5 -49 -6 -60 -5 -33 37 -31 68 2 59 63 104 186 109
295 7 134 -37 249 -133 351 -39 40 -40 41 -61 28z"/>
</g>
</svg>
